<svg width="199" height="58" viewBox="0 0 199 58" fill="none" xmlns="http://www.w3.org/2000/svg">
<path d="M6.00848 13.698V26.164H10.2405C12.6631 26.164 14.5491 25.612 15.8985 24.508C17.2478 23.404 17.9225 21.886 17.9225 19.954C17.9225 18.022 17.3398 16.55 16.1745 15.538C14.7945 14.3113 12.5711 13.698 9.50448 13.698H6.00848ZM6.00848 28.234V40.93H12.3565C14.6258 40.93 16.5118 40.4547 18.0145 39.504C19.7625 38.4 20.6365 36.7747 20.6365 34.628C20.6365 32.2973 19.7011 30.5953 17.8305 29.522C16.3278 28.6633 14.3345 28.234 11.8505 28.234H6.00848ZM12.8165 43H3.52447V11.628H10.0105C13.1998 11.628 15.7145 12.272 17.5545 13.56C19.5478 14.9707 20.5445 17.0407 20.5445 19.77C20.5445 22.714 19.0418 25.0293 16.0365 26.716C17.9991 27.1147 19.5938 27.866 20.8205 28.97C22.4458 30.442 23.2585 32.3587 23.2585 34.72C23.2585 37.5107 22.1391 39.642 19.9005 41.114C17.9991 42.3713 15.6378 43 12.8165 43ZM31.182 43V11.628H48.34V13.698H33.666V26.164H47.972V28.234H33.666V40.93H48.708V43H31.182ZM56.9528 43V11.628H59.2528L82.8508 39.044V11.628H85.2888V43H83.2648L59.4368 15.446V43H56.9528ZM91.5042 13.652V11.582H117.448V13.652H105.718V43H103.234V13.652H91.5042ZM123.992 43V11.582H126.476V40.93H141.978V43H123.992ZM148.775 43V11.628H165.933V13.698H151.259V26.164H165.565V28.234H151.259V40.93H166.301V43H148.775ZM183.7 26.21L171.602 11.628H174.5L184.942 24.048L195.476 11.628H198.42L186.184 26.164V43H183.7V26.21Z" fill="white"/>
</svg>
