<svg width="1919" height="600" viewBox="0 0 1919 600" fill="none" xmlns="http://www.w3.org/2000/svg">
<path d="M1920 -488H0V1546H1920V-488Z" fill="black"/>
<path d="M0 202.96H148.204L0 -64.6615V202.96Z" fill="#060606"/>
<path d="M0 -64.6611L148.204 202.96L296.722 -65.1279H0V-64.6611Z" fill="#131313"/>
<path d="M148.204 202.96L296.721 -65.1279L445.239 202.96H148.204Z" fill="#131313"/>
<path d="M593.694 -65.1279L445.239 202.96L296.722 -65.1279H593.694Z" fill="#131313"/>
<path d="M445.239 202.96L593.694 -65.1279L742.212 202.96H445.239Z" fill="#131313"/>
<path d="M890.667 -65.1279L742.212 202.96L593.694 -65.1279H890.667Z" fill="#131313"/>
<path d="M742.212 202.96L890.667 -65.1279L1039.18 202.96H742.212Z" fill="#131313"/>
<path d="M1187.64 -65.1279L1039.18 202.96L890.667 -65.1279H1187.64Z" fill="#060606"/>
<path d="M1039.18 202.96L1187.64 -65.1279L1336.16 202.96H1039.18Z" fill="black"/>
<path d="M1484.61 -65.1279L1336.16 202.96L1187.64 -65.1279H1484.61Z" fill="#131313"/>
<path d="M1336.16 202.96L1484.61 -65.1279L1633.13 202.96H1336.16Z" fill="black"/>
<path d="M1781.58 -65.1279L1633.13 202.96L1484.61 -65.1279H1781.58Z" fill="black"/>
<path d="M1920 202.96V184.754L1781.58 -65.1279L1633.13 202.96H1920Z" fill="#131313"/>
<path d="M1920 184.754V-65.1279H1781.58L1920 184.754Z" fill="#131313"/>
<path d="M0 470.581L148.204 202.96H0V470.581Z" fill="#202020"/>
<path d="M0 471.048H296.722L148.204 202.96L0 470.581V471.048Z" fill="#202020"/>
<path d="M445.239 202.96L296.721 471.048L148.204 202.96H445.239Z" fill="#131313"/>
<path d="M296.722 471.048L445.239 202.96L593.694 471.048H296.722Z" fill="#060606"/>
<path d="M742.212 202.96L593.694 471.048L445.239 202.96H742.212Z" fill="#202020"/>
<path d="M593.694 471.048L742.212 202.96L890.667 471.048H593.694Z" fill="#131313"/>
<path d="M1039.18 202.96L890.667 471.048L742.212 202.96H1039.18Z" fill="#131313"/>
<path d="M890.667 471.048L1039.18 202.96L1187.64 471.048H890.667Z" fill="#060606"/>
<path d="M1336.16 202.96L1187.64 471.048L1039.18 202.96H1336.16Z" fill="#060606"/>
<path d="M1187.64 471.048L1336.16 202.96L1484.61 471.048H1187.64Z" fill="#131313"/>
<path d="M1633.13 202.96L1484.61 471.048L1336.16 202.96H1633.13Z" fill="black"/>
<path d="M1484.61 471.048L1633.13 202.96L1781.58 471.048H1484.61Z" fill="#060606"/>
<path d="M1920 202.96H1633.13L1781.58 471.048L1920 221.166V202.96Z" fill="#131313"/>
<path d="M1920 471.047V221.166L1781.58 471.047H1920Z" fill="#060606"/>
<path d="M0 739.135H148.204L0 471.515V739.135Z" fill="#060606"/>
<path d="M0 471.515L148.204 739.135L296.722 471.048H0V471.515Z" fill="#131313"/>
<path d="M148.204 739.135L296.721 471.048L445.239 739.135H148.204Z" fill="#131313"/>
<path d="M593.694 471.048L445.239 739.135L296.722 471.048H593.694Z" fill="#131313"/>
<path d="M445.239 739.135L593.694 471.048L742.212 739.135H445.239Z" fill="#202020"/>
<path d="M890.667 471.048L742.212 739.135L593.694 471.048H890.667Z" fill="#202020"/>
<path d="M742.212 739.135L890.667 471.048L1039.18 739.135H742.212Z" fill="#131313"/>
<path d="M1187.64 471.048L1039.18 739.135L890.667 471.048H1187.64Z" fill="#202020"/>
<path d="M1039.18 739.135L1187.64 471.048L1336.16 739.135H1039.18Z" fill="#202020"/>
<path d="M1484.61 471.048L1336.16 739.135L1187.64 471.048H1484.61Z" fill="black"/>
<path d="M1336.16 739.135L1484.61 471.048L1633.13 739.135H1336.16Z" fill="#060606"/>
<path d="M1781.58 471.048L1633.13 739.135L1484.61 471.048H1781.58Z" fill="#202020"/>
<path d="M1920 739.135V720.93L1781.58 471.048L1633.13 739.135H1920Z" fill="black"/>
<path d="M1920 720.93V471.048H1781.58L1920 720.93Z" fill="black"/>
</svg>
