<svg width="180" height="45" viewBox="0 0 180 45" fill="none" xmlns="http://www.w3.org/2000/svg">
<g clip-path="url(#clip0)">
<path d="M26.4187 30.8457C27.0703 30.8457 27.6434 31.4188 27.6434 32.0705C27.6434 32.7614 27.0703 33.2952 26.4187 33.2952H6.75975C3.21894 33.2952 0.329773 30.4061 0.329773 26.8653V7.15138C0.329773 3.61057 3.21894 0.721405 6.75975 0.721405H26.4187C27.0703 0.721405 27.5963 1.24742 27.5963 1.94616C27.5963 2.5978 27.0703 3.17092 26.4187 3.17092H6.75975C4.56146 3.17092 2.77144 4.96095 2.77144 7.15923V15.4656H25.8926C26.5835 15.4656 27.1096 16.0387 27.1096 16.6903C27.1096 17.342 26.5835 17.9151 25.8926 17.9151H2.77144V26.8496C2.77144 29.0478 4.56146 30.8379 6.75975 30.8379H26.4187V30.8457Z" fill="white" stroke="white" stroke-width="0.8328" stroke-miterlimit="10"/>
<path d="M49.8618 12.1132C53.3633 12.1132 56.174 14.9239 56.174 18.4254V26.9752C56.174 30.4767 53.3633 33.2874 49.9089 33.2874H37.2452C33.7436 33.2874 30.933 30.4375 30.933 26.9752C30.933 23.4736 33.7829 20.663 37.2844 20.663C52.0208 20.663 53.8108 20.663 53.8108 20.663C53.8108 20.663 53.8108 19.6423 53.8108 18.4254C53.8108 16.2271 52.0208 14.4764 49.8618 14.4764H32.354C31.6631 14.4764 31.1293 13.9504 31.1293 13.2987C31.1293 12.6471 31.6553 12.1211 32.354 12.1211H49.8618V12.1132ZM37.2452 30.885H49.901C52.06 30.885 53.8108 29.1342 53.8108 26.9752C53.8108 25.0203 53.8108 23.0261 53.8108 23.0261C53.8108 23.0261 52.0208 23.0261 37.2844 23.0261C35.0862 23.0261 33.3354 24.8161 33.3354 26.9752C33.3354 29.1342 35.0862 30.885 37.2452 30.885Z" fill="white" stroke="white" stroke-width="0.8328" stroke-miterlimit="10"/>
<path d="M83.6917 12.1132C84.3434 12.1132 84.9165 12.6863 84.9165 13.338C84.9165 13.9896 84.3434 14.5627 83.6917 14.5627H66.4745C64.1506 14.5627 62.1564 16.1486 62.1564 18.025C62.1564 19.9014 64.1506 21.4873 66.4745 21.4873H78.6043C82.31 21.4873 85.3247 24.0939 85.3247 27.352C85.3247 30.5709 82.31 33.2952 78.6043 33.2952H61.018C60.3664 33.2952 59.8404 32.7692 59.8404 32.0705C59.8404 31.4188 60.3664 30.8928 61.018 30.8928H78.6043C80.9282 30.8928 82.8752 29.2206 82.8752 27.352C82.8752 25.4835 80.9203 23.8897 78.6043 23.8897H66.4745C62.7688 23.8897 59.7619 21.2439 59.7619 18.025C59.7619 14.7669 62.7767 12.1211 66.4745 12.1211H83.6917V12.1132Z" fill="white" stroke="white" stroke-width="0.8328" stroke-miterlimit="10"/>
<path d="M99.7706 30.8457C100.461 30.8457 100.995 31.4188 100.995 32.0705C100.995 32.7614 100.469 33.2952 99.7706 33.2952H95.4526C91.9118 33.2952 89.0226 30.4061 89.0226 26.8653V1.93832C89.0226 1.24743 89.5486 0.713562 90.2473 0.713562C90.899 0.713562 91.4721 1.23958 91.4721 1.93832V12.074H99.7392C100.43 12.074 100.956 12.6 100.956 13.2987C100.956 13.9504 100.43 14.4764 99.7392 14.4764H91.4642V26.8496C91.4642 29.0478 93.2543 30.8379 95.4526 30.8379H99.7706V30.8457Z" fill="white" stroke="white" stroke-width="0.8328" stroke-miterlimit="10"/>
<path d="M103.877 1.93832C103.877 1.24743 104.403 0.713562 105.101 0.713562C105.753 0.713562 106.326 1.23958 106.326 1.93832V26.8496C106.326 29.0478 108.116 30.8379 110.314 30.8379H130.625C131.277 30.8379 131.842 31.411 131.842 32.0626C131.842 32.7535 131.269 33.2874 130.625 33.2874H110.307C106.766 33.2874 103.877 30.3982 103.877 26.8574V1.93832Z" fill="white" stroke="white" stroke-width="0.8328" stroke-miterlimit="10"/>
<path d="M133.224 8.08566C133.224 7.39477 133.75 6.8609 134.448 6.8609C135.1 6.8609 135.673 7.38692 135.673 8.08566V9.50669C135.673 10.1583 135.1 10.7314 134.448 10.7314C133.758 10.7314 133.224 10.1583 133.224 9.50669V8.08566ZM135.665 13.2987V32.0626C135.665 32.7535 135.092 33.2874 134.441 33.2874C133.75 33.2874 133.216 32.7614 133.216 32.0626V13.2987C133.216 12.6471 133.742 12.1211 134.441 12.1211C135.1 12.1132 135.665 12.6471 135.665 13.2987Z" fill="white" stroke="white" stroke-width="0.8328" stroke-miterlimit="10"/>
<path d="M173.115 12.1132C176.781 12.1132 179.67 15.128 179.67 18.7081V32.1019C179.67 32.7535 179.144 33.2795 178.446 33.2795C177.755 33.2795 177.229 32.7535 177.229 32.1019V18.7081C177.229 16.4705 175.478 14.6805 173.115 14.6805H164.651C162.492 14.6805 160.742 16.4705 160.742 18.7081V32.1019C160.742 32.675 160.168 33.1618 159.564 33.2403C159.525 33.2795 159.438 33.2795 159.36 33.2795C158.669 33.2795 158.143 32.7535 158.143 32.1019V18.7081C158.143 16.4705 156.392 14.6805 154.155 14.6805H146.013C143.854 14.6805 142.064 16.4705 142.064 18.7081V32.1019C142.064 32.7535 141.452 33.2795 140.8 33.2795C140.148 33.2795 139.622 32.7535 139.622 32.1019V18.7081C139.622 15.128 142.511 12.1132 146.013 12.1132H154.155C156.353 12.1132 158.182 13.2909 159.368 14.9239C160.71 13.2987 162.539 12.1132 164.659 12.1132H173.115Z" fill="white" stroke="white" stroke-width="0.8328" stroke-miterlimit="10"/>
<path d="M0.0942383 37.158H6.4143V37.8802H0.832233V40.2434H6.27298V40.9657H0.832233V43.5722H6.4143V44.2945H0.0942383V37.158Z" fill="white"/>
<path d="M9.13857 41.1855H12.0984C12.9385 41.1855 13.0405 41.5859 13.0405 41.5859V40.8793C13.0405 40.3062 12.6715 39.8352 11.7844 39.8352H9.82161C8.62826 39.8352 8.56545 40.212 8.56545 40.6752H7.81175C7.81175 40.0707 7.90596 39.2149 9.64104 39.2149H11.8707C13.2446 39.2149 13.7864 39.8901 13.7864 41.005V44.2945H13.0484V43.8863C13.0484 43.8863 12.7579 44.2945 12.1455 44.2945H9.26419C8.1729 44.2945 7.56052 43.8863 7.56052 42.9991V42.3789C7.55267 41.6801 8.03158 41.1855 9.13857 41.1855ZM8.29851 42.5438V42.9128C8.29851 43.3681 8.52619 43.6743 9.40551 43.6743H11.91C12.6794 43.6743 13.0405 43.3681 13.0405 42.7243C13.0405 42.0805 12.6323 41.7979 11.91 41.7979H9.40551C8.47909 41.8058 8.29851 42.0727 8.29851 42.5438Z" fill="white"/>
<path d="M15.6235 42.6694V42.9599C15.6235 43.3681 15.7334 43.6821 16.8012 43.6821H19.3998C20.13 43.6821 20.5539 43.4388 20.5539 42.9834V42.7557C20.5539 42.3004 20.1849 42.0334 19.5647 42.0334H16.6049C15.5136 42.0334 14.8777 41.6644 14.8777 40.7145V40.5103C14.8777 39.8116 15.4351 39.1914 16.6834 39.1914H19.0858C20.9543 39.1914 21.2841 39.8901 21.2841 40.4475V40.8008H20.5461V40.4711C20.5461 40.2827 20.444 39.8116 19.1094 39.8116H16.5578C15.9375 39.8116 15.6157 40.055 15.6157 40.5103V40.7145C15.6157 41.1855 15.9454 41.4132 16.5578 41.4132H19.5176C20.6246 41.4132 21.2841 41.8215 21.2841 42.7479V42.9756C21.2841 43.6507 20.6874 44.2945 19.4234 44.2945H16.597C15.1446 44.2945 14.8698 43.6743 14.8698 43.0384V42.6694H15.6235Z" fill="white"/>
<path d="M23.3803 38.2021V39.1914H27.2116V39.8116H23.3803V42.4809C23.3803 43.3053 23.8514 43.6743 24.4716 43.6743H25.4609C26.8505 43.6743 26.9525 42.9128 26.9525 42.2376H27.6905C27.6905 42.9913 27.5021 44.2945 25.5315 44.2945H24.4716C23.3411 44.2945 22.6423 43.6743 22.6423 42.371V39.8116H22.0064V39.1914H22.6423V38.2021H23.3803Z" fill="white"/>
<path d="M31.2313 44.2867L34.9291 37.1501H36.0597L39.7575 44.2867H38.8939L37.9753 42.4967H32.9585L32.04 44.2867H31.2313ZM37.6063 41.7822L35.4866 37.6683L33.3668 41.7822H37.6063Z" fill="white"/>
<path d="M46.7528 42.5045C46.7528 42.9284 46.6272 44.2945 44.6173 44.2945H42.3327C40.9116 44.2945 40.2757 43.5722 40.2757 42.426V41.1541C40.2757 40.0628 40.9509 39.1992 42.3955 39.1992H44.6173C46.5879 39.1992 46.7528 40.5731 46.7528 40.9892H46.0148C46.0148 40.6831 45.9127 39.8194 44.6173 39.8194H42.3955C41.5319 39.8194 41.0215 40.2513 41.0215 41.1541V42.426C41.0215 43.2503 41.6418 43.6821 42.3562 43.6821H44.6094C45.8813 43.6821 46.0148 42.8813 46.0148 42.5123H46.7528V42.5045Z" fill="white"/>
<path d="M48.7234 38.2021V39.1914H52.5546V39.8116H48.7234V42.4809C48.7234 43.3053 49.1944 43.6743 49.8146 43.6743H50.8039C52.1935 43.6743 52.2956 42.9128 52.2956 42.2376H53.0336C53.0336 42.9913 52.8451 44.2945 50.8745 44.2945H49.8146C48.6841 44.2945 47.9854 43.6743 47.9854 42.371V39.8116H47.3494V39.1914H47.9854V38.2021H48.7234Z" fill="white"/>
<path d="M54.7686 37.158V37.896H54.0306V37.158H54.7686ZM54.7686 44.2867H54.0306V39.2071H54.7686V44.2867Z" fill="white"/>
<path d="M58.2466 39.1914H60.2801C61.968 39.1914 62.5019 40.1256 62.5019 41.1855V42.2925C62.5019 43.3603 61.9131 44.2867 60.2722 44.2867H58.2466C56.7471 44.2867 56.0248 43.5879 56.0248 42.2925V41.1855C56.0248 40.0628 56.645 39.1914 58.2466 39.1914ZM58.2938 43.6743H60.2172C61.1437 43.6743 61.756 43.2818 61.756 42.3004V41.1934C61.756 40.3062 61.2143 39.8195 60.2251 39.8195H58.2938C57.2888 39.8195 56.7628 40.212 56.7628 41.1934V42.3004C56.7628 43.2189 57.2888 43.6743 58.2938 43.6743Z" fill="white"/>
<path d="M64.2684 40.0236C64.4568 39.5368 64.9592 39.2149 65.7443 39.2149H67.6993C69.3637 39.2149 69.9211 40.2042 69.9211 41.3347V44.2945H69.1831V41.2326C69.1831 40.3455 68.5864 39.8352 67.6993 39.8352H65.7443C64.8807 39.8352 64.2684 40.3455 64.2684 41.2326V44.2945H63.5304V39.2149H64.2684V40.0236Z" fill="white"/>
<path d="M80.096 44.2867H76.9713C75.0399 44.2867 74.3177 43.6664 74.3177 41.8372V39.6153C74.3177 37.786 74.9536 37.0638 76.9713 37.0638H80.096C81.8232 37.0638 82.6633 37.5348 82.6633 39.6153V41.8372C82.6711 43.8784 81.9881 44.2867 80.096 44.2867ZM80.0881 37.7939H76.9634C75.6288 37.7939 75.0635 38.1707 75.0635 39.5604V41.845C75.0635 43.2111 75.5817 43.5722 76.9634 43.5722H80.0881C81.5877 43.5722 81.9253 43.2346 81.9253 41.845V39.5604C81.9253 38.155 81.5092 37.7939 80.0881 37.7939Z" fill="white"/>
<path d="M89.6192 39.2149L86.8164 44.2945H86.0235L83.2207 39.2149H84.045L86.3454 43.4937H86.5024L88.8027 39.2149H89.6192Z" fill="white"/>
<path d="M90.8911 41.8058V42.3004C90.8911 43.3524 91.4956 43.6743 92.2964 43.6743H94.6988C95.5232 43.6743 95.8843 43.2425 95.8843 42.6694H96.6223C96.6223 43.4074 96.2219 44.2945 94.8245 44.2945H92.3278C90.8519 44.2945 90.1453 43.6586 90.1453 42.4024V41.0678C90.1453 40.1413 90.9068 39.1992 92.3043 39.1992H94.4398C95.9 39.1992 96.6223 40.0393 96.6223 40.9892V41.8136H90.8911V41.8058ZM94.5183 39.8116H92.1944C91.425 39.8116 90.8911 40.3533 90.8911 41.1855H95.8843C95.8922 40.3298 95.374 39.8116 94.5183 39.8116Z" fill="white"/>
<path d="M98.483 39.8587C98.5144 39.7881 98.7814 39.2071 99.8412 39.2071H101.278C103.249 39.2071 103.437 40.636 103.437 41.2641H102.699C102.699 40.9108 102.597 39.8273 101.207 39.8273H99.8884C99.0797 39.8273 98.483 40.4004 98.483 41.0207V44.2867H97.745V39.2071H98.483V39.8587Z" fill="white"/>
<path d="M105.376 42.6694V42.9599C105.376 43.3681 105.486 43.6821 106.554 43.6821H109.153C109.883 43.6821 110.307 43.4388 110.307 42.9834V42.7557C110.307 42.3004 109.938 42.0334 109.317 42.0334H106.358C105.266 42.0334 104.63 41.6644 104.63 40.7145V40.5103C104.63 39.8116 105.188 39.1914 106.436 39.1914H108.839C110.707 39.1914 111.037 39.8901 111.037 40.4475V40.8008H110.299V40.4711C110.299 40.2827 110.197 39.8116 108.862 39.8116H106.31C105.69 39.8116 105.368 40.055 105.368 40.5103V40.7145C105.368 41.1855 105.698 41.4132 106.31 41.4132H109.27C110.377 41.4132 111.037 41.8215 111.037 42.7479V42.9756C111.037 43.6507 110.44 44.2945 109.176 44.2945H106.35C104.897 44.2945 104.623 43.6743 104.623 43.0384V42.6694H105.376Z" fill="white"/>
<path d="M112.858 41.8058V42.3004C112.858 43.3524 113.463 43.6743 114.264 43.6743H116.666C117.49 43.6743 117.851 43.2425 117.851 42.6694H118.589C118.589 43.4074 118.189 44.2945 116.792 44.2945H114.295C112.819 44.2945 112.112 43.6586 112.112 42.4024V41.0678C112.112 40.1413 112.874 39.1992 114.271 39.1992H116.407C117.867 39.1992 118.589 40.0393 118.589 40.9892V41.8136H112.858V41.8058ZM116.485 39.8116H114.162C113.392 39.8116 112.858 40.3533 112.858 41.1855H117.851C117.859 40.3298 117.341 39.8116 116.485 39.8116Z" fill="white"/>
<path d="M121.165 41.1855H124.124C124.964 41.1855 125.067 41.5859 125.067 41.5859V40.8793C125.067 40.3062 124.698 39.8352 123.81 39.8352H121.848C120.654 39.8352 120.591 40.212 120.591 40.6752H119.83C119.83 40.0707 119.924 39.2149 121.659 39.2149H123.889C125.263 39.2149 125.805 39.8901 125.805 41.005V44.2945H125.067V43.8863C125.067 43.8863 124.776 44.2945 124.164 44.2945H121.282C120.191 44.2945 119.579 43.8863 119.579 42.9991V42.3789C119.587 41.6801 120.058 41.1855 121.165 41.1855ZM120.325 42.5438V42.9128C120.325 43.3681 120.552 43.6743 121.432 43.6743H123.936C124.705 43.6743 125.067 43.3681 125.067 42.7243C125.067 42.0805 124.658 41.7979 123.936 41.7979H121.432C120.505 41.8058 120.325 42.0727 120.325 42.5438Z" fill="white"/>
<path d="M127.657 42.6694V42.9599C127.657 43.3681 127.767 43.6821 128.835 43.6821H131.434C132.164 43.6821 132.588 43.4388 132.588 42.9834V42.7557C132.588 42.3004 132.219 42.0334 131.599 42.0334H128.639C127.547 42.0334 126.912 41.6644 126.912 40.7145V40.5103C126.912 39.8116 127.469 39.1914 128.717 39.1914H131.12C132.988 39.1914 133.318 39.8901 133.318 40.4475V40.8008H132.58V40.4711C132.58 40.2827 132.478 39.8116 131.143 39.8116H128.592C127.971 39.8116 127.65 40.055 127.65 40.5103V40.7145C127.65 41.1855 127.979 41.4132 128.592 41.4132H131.551C132.658 41.4132 133.318 41.8215 133.318 42.7479V42.9756C133.318 43.6507 132.721 44.2945 131.457 44.2945H128.631C127.178 44.2945 126.904 43.6743 126.904 43.0384V42.6694H127.657Z" fill="white"/>
<path d="M138.594 43.5722H143.972V44.2945H137.856V37.158H138.594V43.5722Z" fill="white"/>
<path d="M146.052 37.158V37.896H145.314V37.158H146.052ZM146.052 44.2867H145.314V39.2071H146.052V44.2867Z" fill="white"/>
<path d="M148.086 39.9843C148.125 39.9058 148.478 39.2149 149.711 39.2149H150.716C152.074 39.2149 152.467 39.7724 152.671 40.2199C152.796 39.8823 153.126 39.2149 154.578 39.2149H155.733C157.169 39.2149 157.954 40.0393 157.954 40.9814V44.2945H157.216V41.1306C157.216 40.3062 156.62 39.8352 155.552 39.8352H154.79C153.683 39.8352 153.024 40.267 153.024 41.2326V44.2945H152.286V41.2091C152.286 40.2827 151.587 39.8352 150.637 39.8352H149.836C148.565 39.8352 148.086 40.5732 148.086 41.1698V44.2945H147.348V39.2149H148.086V39.9843Z" fill="white"/>
<path d="M159.054 43.4859H159.854V44.2867H159.054V43.4859Z" fill="white"/>
<path d="M172.4 42.2533C172.4 43.5879 171.701 44.2867 169.809 44.2867H166.685C164.777 44.2867 164.055 43.5644 164.055 41.7351V39.6781C164.055 37.786 164.777 37.0638 166.685 37.0638H169.809C171.537 37.0638 172.4 37.7232 172.4 39.0972H171.662C171.662 38.2964 171.238 37.7782 169.825 37.7782H166.7C165.248 37.7782 164.8 38.21 164.8 39.6703V41.7272C164.8 43.1483 165.287 43.5565 166.7 43.5565H169.825C171.183 43.5565 171.662 43.1483 171.662 42.2376H172.4V42.2533Z" fill="white"/>
<path d="M175.666 39.1914H177.7C179.388 39.1914 179.922 40.1256 179.922 41.1855V42.2925C179.922 43.3603 179.333 44.2867 177.692 44.2867H175.666C174.167 44.2867 173.444 43.5879 173.444 42.2925V41.1855C173.444 40.0628 174.065 39.1914 175.666 39.1914ZM175.721 43.6743H177.645C178.571 43.6743 179.184 43.2818 179.184 42.3004V41.1934C179.184 40.3062 178.642 39.8195 177.653 39.8195H175.721C174.716 39.8195 174.19 40.212 174.19 41.1934V42.3004C174.19 43.2189 174.708 43.6743 175.721 43.6743Z" fill="white"/>
</g>
<defs>
<clipPath id="clip0">
<rect width="180" height="43.895" fill="white" transform="translate(0 0.391693)"/>
</clipPath>
</defs>
</svg>
