<svg width="230" height="57" viewBox="0 0 230 57" fill="none" xmlns="http://www.w3.org/2000/svg">
<g clip-path="url(#clip0)">
<path d="M33.65 39.1743C34.48 39.1743 35.21 39.9043 35.21 40.7343C35.21 41.6143 34.48 42.2943 33.65 42.2943H8.60998C4.09998 42.2943 0.419983 38.6143 0.419983 34.1043V8.99432C0.419983 4.48432 4.09998 0.804321 8.60998 0.804321H33.65C34.48 0.804321 35.15 1.47432 35.15 2.36432C35.15 3.19432 34.48 3.92432 33.65 3.92432H8.60998C5.80998 3.92432 3.52998 6.20432 3.52998 9.00432V19.5843H32.98C33.86 19.5843 34.53 20.3143 34.53 21.1443C34.53 21.9743 33.86 22.7043 32.98 22.7043H3.52998V34.0843C3.52998 36.8843 5.80998 39.1643 8.60998 39.1643H33.65V39.1743Z" fill="#575756" stroke="#575756" stroke-width="0.8328" stroke-miterlimit="10"/>
<path d="M63.51 15.3143C67.97 15.3143 71.55 18.8943 71.55 23.3543V34.2443C71.55 38.7043 67.97 42.2843 63.57 42.2843H47.44C42.98 42.2843 39.4 38.6543 39.4 34.2443C39.4 29.7843 43.03 26.2043 47.49 26.2043C66.26 26.2043 68.54 26.2043 68.54 26.2043C68.54 26.2043 68.54 24.9043 68.54 23.3543C68.54 20.5543 66.26 18.3243 63.51 18.3243H41.21C40.33 18.3243 39.65 17.6543 39.65 16.8243C39.65 15.9943 40.32 15.3243 41.21 15.3243H63.51V15.3143ZM47.44 39.2243H63.56C66.31 39.2243 68.54 36.9943 68.54 34.2443C68.54 31.7543 68.54 29.2143 68.54 29.2143C68.54 29.2143 66.26 29.2143 47.49 29.2143C44.69 29.2143 42.46 31.4943 42.46 34.2443C42.46 36.9943 44.69 39.2243 47.44 39.2243Z" fill="#575756" stroke="#575756" stroke-width="0.8328" stroke-miterlimit="10"/>
<path d="M106.6 15.3143C107.43 15.3143 108.16 16.0443 108.16 16.8743C108.16 17.7043 107.43 18.4343 106.6 18.4343H84.67C81.71 18.4343 79.17 20.4543 79.17 22.8443C79.17 25.2343 81.71 27.2543 84.67 27.2543H100.12C104.84 27.2543 108.68 30.5743 108.68 34.7243C108.68 38.8243 104.84 42.2943 100.12 42.2943H77.72C76.89 42.2943 76.22 41.6243 76.22 40.7343C76.22 39.9043 76.89 39.2343 77.72 39.2343H100.12C103.08 39.2343 105.56 37.1043 105.56 34.7243C105.56 32.3443 103.07 30.3143 100.12 30.3143H84.67C79.95 30.3143 76.12 26.9443 76.12 22.8443C76.12 18.6943 79.96 15.3243 84.67 15.3243H106.6V15.3143Z" fill="#575756" stroke="#575756" stroke-width="0.8328" stroke-miterlimit="10"/>
<path d="M127.08 39.1743C127.96 39.1743 128.64 39.9043 128.64 40.7343C128.64 41.6143 127.97 42.2943 127.08 42.2943H121.58C117.07 42.2943 113.39 38.6143 113.39 34.1043V2.35431C113.39 1.47431 114.06 0.794312 114.95 0.794312C115.78 0.794312 116.51 1.46431 116.51 2.35431V15.2643H127.04C127.92 15.2643 128.59 15.9343 128.59 16.8243C128.59 17.6543 127.92 18.3243 127.04 18.3243H116.5V34.0843C116.5 36.8843 118.78 39.1643 121.58 39.1643H127.08V39.1743Z" fill="#575756" stroke="#575756" stroke-width="0.8328" stroke-miterlimit="10"/>
<path d="M132.31 2.35431C132.31 1.47431 132.98 0.794312 133.87 0.794312C134.7 0.794312 135.43 1.46431 135.43 2.35431V34.0843C135.43 36.8843 137.71 39.1643 140.51 39.1643H166.38C167.21 39.1643 167.93 39.8943 167.93 40.7243C167.93 41.6043 167.2 42.2843 166.38 42.2843H140.5C135.99 42.2843 132.31 38.6043 132.31 34.0943V2.35431Z" fill="#575756" stroke="#575756" stroke-width="0.8328" stroke-miterlimit="10"/>
<path d="M169.69 10.1843C169.69 9.3043 170.36 8.6243 171.25 8.6243C172.08 8.6243 172.81 9.2943 172.81 10.1843V11.9943C172.81 12.8243 172.08 13.5543 171.25 13.5543C170.37 13.5543 169.69 12.8243 169.69 11.9943V10.1843ZM172.8 16.8243V40.7243C172.8 41.6043 172.07 42.2843 171.24 42.2843C170.36 42.2843 169.68 41.6143 169.68 40.7243V16.8243C169.68 15.9943 170.35 15.3243 171.24 15.3243C172.08 15.3143 172.8 15.9943 172.8 16.8243Z" fill="#575756" stroke="#575756" stroke-width="0.8328" stroke-miterlimit="10"/>
<path d="M220.5 15.3143C225.17 15.3143 228.85 19.1543 228.85 23.7143V40.7743C228.85 41.6043 228.18 42.2743 227.29 42.2743C226.41 42.2743 225.74 41.6043 225.74 40.7743V23.7143C225.74 20.8643 223.51 18.5843 220.5 18.5843H209.72C206.97 18.5843 204.74 20.8643 204.74 23.7143V40.7743C204.74 41.5043 204.01 42.1243 203.24 42.2243C203.19 42.2743 203.08 42.2743 202.98 42.2743C202.1 42.2743 201.43 41.6043 201.43 40.7743V23.7143C201.43 20.8643 199.2 18.5843 196.35 18.5843H185.98C183.23 18.5843 180.95 20.8643 180.95 23.7143V40.7743C180.95 41.6043 180.17 42.2743 179.34 42.2743C178.51 42.2743 177.84 41.6043 177.84 40.7743V23.7143C177.84 19.1543 181.52 15.3143 185.98 15.3143H196.35C199.15 15.3143 201.48 16.8143 202.99 18.8943C204.7 16.8243 207.03 15.3143 209.73 15.3143H220.5Z" fill="#575756" stroke="#575756" stroke-width="0.8328" stroke-miterlimit="10"/>
<path d="M0.119995 47.2143H8.17V48.1343H1.06V51.1443H7.99V52.0643H1.06V55.3843H8.17V56.3043H0.119995V47.2143Z" fill="#575756"/>
<path d="M11.64 52.3443H15.41C16.48 52.3443 16.61 52.8543 16.61 52.8543V51.9543C16.61 51.2243 16.14 50.6243 15.01 50.6243H12.51C10.99 50.6243 10.91 51.1043 10.91 51.6943H9.95C9.95 50.9243 10.07 49.8343 12.28 49.8343H15.12C16.87 49.8343 17.56 50.6943 17.56 52.1143V56.3043H16.62V55.7843C16.62 55.7843 16.25 56.3043 15.47 56.3043H11.8C10.41 56.3043 9.63 55.7843 9.63 54.6543V53.8643C9.62 52.9743 10.23 52.3443 11.64 52.3443ZM10.57 54.0743V54.5443C10.57 55.1243 10.86 55.5143 11.98 55.5143H15.17C16.15 55.5143 16.61 55.1243 16.61 54.3043C16.61 53.4843 16.09 53.1243 15.17 53.1243H11.98C10.8 53.1343 10.57 53.4743 10.57 54.0743Z" fill="#575756"/>
<path d="M19.9 54.2343V54.6043C19.9 55.1243 20.04 55.5243 21.4 55.5243H24.71C25.64 55.5243 26.18 55.2143 26.18 54.6343V54.3443C26.18 53.7643 25.71 53.4243 24.92 53.4243H21.15C19.76 53.4243 18.95 52.9543 18.95 51.7443V51.4843C18.95 50.5943 19.66 49.8043 21.25 49.8043H24.31C26.69 49.8043 27.11 50.6943 27.11 51.4043V51.8543H26.17V51.4343C26.17 51.1943 26.04 50.5943 24.34 50.5943H21.09C20.3 50.5943 19.89 50.9043 19.89 51.4843V51.7443C19.89 52.3443 20.31 52.6343 21.09 52.6343H24.86C26.27 52.6343 27.11 53.1543 27.11 54.3343V54.6243C27.11 55.4843 26.35 56.3043 24.74 56.3043H21.14C19.29 56.3043 18.94 55.5143 18.94 54.7043V54.2343H19.9Z" fill="#575756"/>
<path d="M29.78 48.5443V49.8043H34.66V50.5943H29.78V53.9943C29.78 55.0443 30.38 55.5143 31.17 55.5143H32.43C34.2 55.5143 34.33 54.5443 34.33 53.6843H35.27C35.27 54.6443 35.03 56.3043 32.52 56.3043H31.17C29.73 56.3043 28.84 55.5143 28.84 53.8543V50.5943H28.03V49.8043H28.84V48.5443H29.78Z" fill="#575756"/>
<path d="M39.78 56.2943L44.49 47.2043H45.93L50.64 56.2943H49.54L48.37 54.0143H41.98L40.81 56.2943H39.78ZM47.9 53.1043L45.2 47.8643L42.5 53.1043H47.9Z" fill="#575756"/>
<path d="M59.55 54.0243C59.55 54.5643 59.39 56.3043 56.83 56.3043H53.92C52.11 56.3043 51.3 55.3843 51.3 53.9243V52.3043C51.3 50.9143 52.16 49.8143 54 49.8143H56.83C59.34 49.8143 59.55 51.5643 59.55 52.0943H58.61C58.61 51.7043 58.48 50.6043 56.83 50.6043H54C52.9 50.6043 52.25 51.1543 52.25 52.3043V53.9243C52.25 54.9743 53.04 55.5243 53.95 55.5243H56.82C58.44 55.5243 58.61 54.5043 58.61 54.0343H59.55V54.0243Z" fill="#575756"/>
<path d="M62.06 48.5443V49.8043H66.94V50.5943H62.06V53.9943C62.06 55.0443 62.66 55.5143 63.45 55.5143H64.71C66.48 55.5143 66.61 54.5443 66.61 53.6843H67.55C67.55 54.6443 67.31 56.3043 64.8 56.3043H63.45C62.01 56.3043 61.12 55.5143 61.12 53.8543V50.5943H60.31V49.8043H61.12V48.5443H62.06Z" fill="#575756"/>
<path d="M69.76 47.2143V48.1543H68.82V47.2143H69.76ZM69.76 56.2943H68.82V49.8243H69.76V56.2943Z" fill="#575756"/>
<path d="M74.19 49.8043H76.78C78.93 49.8043 79.61 50.9943 79.61 52.3443V53.7543C79.61 55.1143 78.86 56.2943 76.77 56.2943H74.19C72.28 56.2943 71.36 55.4043 71.36 53.7543V52.3443C71.36 50.9143 72.15 49.8043 74.19 49.8043ZM74.25 55.5143H76.7C77.88 55.5143 78.66 55.0143 78.66 53.7643V52.3543C78.66 51.2243 77.97 50.6043 76.71 50.6043H74.25C72.97 50.6043 72.3 51.1043 72.3 52.3543V53.7643C72.3 54.9343 72.97 55.5143 74.25 55.5143Z" fill="#575756"/>
<path d="M81.86 50.8643C82.1 50.2443 82.74 49.8343 83.74 49.8343H86.23C88.35 49.8343 89.06 51.0943 89.06 52.5343V56.3043H88.12V52.4043C88.12 51.2743 87.36 50.6243 86.23 50.6243H83.74C82.64 50.6243 81.86 51.2743 81.86 52.4043V56.3043H80.92V49.8343H81.86V50.8643Z" fill="#575756"/>
<path d="M102.02 56.2943H98.04C95.58 56.2943 94.66 55.5043 94.66 53.1743V50.3443C94.66 48.0143 95.47 47.0943 98.04 47.0943H102.02C104.22 47.0943 105.29 47.6943 105.29 50.3443V53.1743C105.3 55.7743 104.43 56.2943 102.02 56.2943ZM102.01 48.0243H98.03C96.33 48.0243 95.61 48.5043 95.61 50.2743V53.1843C95.61 54.9243 96.27 55.3843 98.03 55.3843H102.01C103.92 55.3843 104.35 54.9543 104.35 53.1843V50.2743C104.35 48.4843 103.82 48.0243 102.01 48.0243Z" fill="#575756"/>
<path d="M114.15 49.8343L110.58 56.3043H109.57L106 49.8343H107.05L109.98 55.2843H110.18L113.11 49.8343H114.15Z" fill="#575756"/>
<path d="M115.77 53.1343V53.7643C115.77 55.1043 116.54 55.5143 117.56 55.5143H120.62C121.67 55.5143 122.13 54.9643 122.13 54.2343H123.07C123.07 55.1743 122.56 56.3043 120.78 56.3043H117.6C115.72 56.3043 114.82 55.4943 114.82 53.8943V52.1943C114.82 51.0143 115.79 49.8143 117.57 49.8143H120.29C122.15 49.8143 123.07 50.8843 123.07 52.0943V53.1443H115.77V53.1343ZM120.39 50.5943H117.43C116.45 50.5943 115.77 51.2843 115.77 52.3443H122.13C122.14 51.2543 121.48 50.5943 120.39 50.5943Z" fill="#575756"/>
<path d="M125.44 50.6543C125.48 50.5643 125.82 49.8243 127.17 49.8243H129C131.51 49.8243 131.75 51.6443 131.75 52.4443H130.81C130.81 51.9943 130.68 50.6143 128.91 50.6143H127.23C126.2 50.6143 125.44 51.3443 125.44 52.1343V56.2943H124.5V49.8243H125.44V50.6543Z" fill="#575756"/>
<path d="M134.22 54.2343V54.6043C134.22 55.1243 134.36 55.5243 135.72 55.5243H139.03C139.96 55.5243 140.5 55.2143 140.5 54.6343V54.3443C140.5 53.7643 140.03 53.4243 139.24 53.4243H135.47C134.08 53.4243 133.27 52.9543 133.27 51.7443V51.4843C133.27 50.5943 133.98 49.8043 135.57 49.8043H138.63C141.01 49.8043 141.43 50.6943 141.43 51.4043V51.8543H140.49V51.4343C140.49 51.1943 140.36 50.5943 138.66 50.5943H135.41C134.62 50.5943 134.21 50.9043 134.21 51.4843V51.7443C134.21 52.3443 134.63 52.6343 135.41 52.6343H139.18C140.59 52.6343 141.43 53.1543 141.43 54.3343V54.6243C141.43 55.4843 140.67 56.3043 139.06 56.3043H135.46C133.61 56.3043 133.26 55.5143 133.26 54.7043V54.2343H134.22Z" fill="#575756"/>
<path d="M143.75 53.1343V53.7643C143.75 55.1043 144.52 55.5143 145.54 55.5143H148.6C149.65 55.5143 150.11 54.9643 150.11 54.2343H151.05C151.05 55.1743 150.54 56.3043 148.76 56.3043H145.58C143.7 56.3043 142.8 55.4943 142.8 53.8943V52.1943C142.8 51.0143 143.77 49.8143 145.55 49.8143H148.27C150.13 49.8143 151.05 50.8843 151.05 52.0943V53.1443H143.75V53.1343ZM148.37 50.5943H145.41C144.43 50.5943 143.75 51.2843 143.75 52.3443H150.11C150.12 51.2543 149.46 50.5943 148.37 50.5943Z" fill="#575756"/>
<path d="M154.33 52.3443H158.1C159.17 52.3443 159.3 52.8543 159.3 52.8543V51.9543C159.3 51.2243 158.83 50.6243 157.7 50.6243H155.2C153.68 50.6243 153.6 51.1043 153.6 51.6943H152.63C152.63 50.9243 152.75 49.8343 154.96 49.8343H157.8C159.55 49.8343 160.24 50.6943 160.24 52.1143V56.3043H159.3V55.7843C159.3 55.7843 158.93 56.3043 158.15 56.3043H154.48C153.09 56.3043 152.31 55.7843 152.31 54.6543V53.8643C152.32 52.9743 152.92 52.3443 154.33 52.3443ZM153.26 54.0743V54.5443C153.26 55.1243 153.55 55.5143 154.67 55.5143H157.86C158.84 55.5143 159.3 55.1243 159.3 54.3043C159.3 53.4843 158.78 53.1243 157.86 53.1243H154.67C153.49 53.1343 153.26 53.4743 153.26 54.0743Z" fill="#575756"/>
<path d="M162.6 54.2343V54.6043C162.6 55.1243 162.74 55.5243 164.1 55.5243H167.41C168.34 55.5243 168.88 55.2143 168.88 54.6343V54.3443C168.88 53.7643 168.41 53.4243 167.62 53.4243H163.85C162.46 53.4243 161.65 52.9543 161.65 51.7443V51.4843C161.65 50.5943 162.36 49.8043 163.95 49.8043H167.01C169.39 49.8043 169.81 50.6943 169.81 51.4043V51.8543H168.87V51.4343C168.87 51.1943 168.74 50.5943 167.04 50.5943H163.79C163 50.5943 162.59 50.9043 162.59 51.4843V51.7443C162.59 52.3443 163.01 52.6343 163.79 52.6343H167.56C168.97 52.6343 169.81 53.1543 169.81 54.3343V54.6243C169.81 55.4843 169.05 56.3043 167.44 56.3043H163.84C161.99 56.3043 161.64 55.5143 161.64 54.7043V54.2343H162.6Z" fill="#575756"/>
<path d="M176.53 55.3843H183.38V56.3043H175.59V47.2143H176.53V55.3843Z" fill="#575756"/>
<path d="M186.03 47.2143V48.1543H185.09V47.2143H186.03ZM186.03 56.2943H185.09V49.8243H186.03V56.2943Z" fill="#575756"/>
<path d="M188.62 50.8143C188.67 50.7143 189.12 49.8343 190.69 49.8343H191.97C193.7 49.8343 194.2 50.5443 194.46 51.1143C194.62 50.6843 195.04 49.8343 196.89 49.8343H198.36C200.19 49.8343 201.19 50.8843 201.19 52.0843V56.3043H200.25V52.2743C200.25 51.2243 199.49 50.6243 198.13 50.6243H197.16C195.75 50.6243 194.91 51.1743 194.91 52.4043V56.3043H193.97V52.3743C193.97 51.1943 193.08 50.6243 191.87 50.6243H190.85C189.23 50.6243 188.62 51.5643 188.62 52.3243V56.3043H187.68V49.8343H188.62V50.8143Z" fill="#575756"/>
<path d="M202.59 55.2743H203.61V56.2943H202.59V55.2743Z" fill="#575756"/>
<path d="M219.59 53.7043C219.59 55.4043 218.7 56.2943 216.29 56.2943H212.31C209.88 56.2943 208.96 55.3743 208.96 53.0443V50.4243C208.96 48.0143 209.88 47.0943 212.31 47.0943H216.29C218.49 47.0943 219.59 47.9343 219.59 49.6843H218.65C218.65 48.6643 218.11 48.0043 216.31 48.0043H212.33C210.48 48.0043 209.91 48.5543 209.91 50.4143V53.0343C209.91 54.8443 210.53 55.3643 212.33 55.3643H216.31C218.04 55.3643 218.65 54.8443 218.65 53.6843H219.59V53.7043Z" fill="#575756"/>
<path d="M223.75 49.8043H226.34C228.49 49.8043 229.17 50.9943 229.17 52.3443V53.7543C229.17 55.1143 228.42 56.2943 226.33 56.2943H223.75C221.84 56.2943 220.92 55.4043 220.92 53.7543V52.3443C220.92 50.9143 221.71 49.8043 223.75 49.8043ZM223.82 55.5143H226.27C227.45 55.5143 228.23 55.0143 228.23 53.7643V52.3543C228.23 51.2243 227.54 50.6043 226.28 50.6043H223.82C222.54 50.6043 221.87 51.1043 221.87 52.3543V53.7643C221.87 54.9343 222.53 55.5143 223.82 55.5143Z" fill="#575756"/>
</g>
<defs>
<clipPath id="clip0">
<rect width="229.27" height="55.91" fill="white" transform="translate(0 0.384308)"/>
</clipPath>
</defs>
</svg>
