<svg width="221" height="58" viewBox="0 0 221 58" fill="none" xmlns="http://www.w3.org/2000/svg">
<path d="M3.09186 43V11.628H5.62186L17.5359 26.164L29.4039 11.628H31.9799V43H29.4959V14.802L17.5359 29.522L5.57586 14.848V43H3.09186ZM42.4603 27.36C42.4603 31.3467 43.779 34.6587 46.4163 37.296C49.0843 39.9027 52.4576 41.206 56.5363 41.206C58.4376 41.206 60.3543 40.8993 62.2863 40.286C63.6356 39.8567 65.4143 39.09 67.6223 37.986V40.516C65.7823 41.4667 63.9576 42.1873 62.1483 42.678C60.3696 43.1687 58.499 43.414 56.5363 43.414C51.8136 43.414 47.8423 41.9113 44.6223 38.906C41.433 35.87 39.8383 32.052 39.8383 27.452C39.8383 22.9133 41.4023 19.08 44.5303 15.952C47.689 12.7933 51.599 11.214 56.2603 11.214C58.315 11.214 60.3236 11.4747 62.2863 11.996C63.789 12.3947 65.4603 13.008 67.3003 13.836V16.458C65.2763 15.4153 63.651 14.6947 62.4243 14.296C60.6456 13.7133 58.7136 13.422 56.6283 13.422C52.427 13.422 49.0076 14.7407 46.3703 17.378C43.7636 19.9847 42.4603 23.312 42.4603 27.36ZM75.4772 43V11.582H77.9612V40.93H93.4632V43H75.4772ZM97.3157 43L111.714 11.398H113.14L127.63 43H125.1L120.132 32.144H104.814L99.8457 43H97.3157ZM119.166 30.074L112.45 15.354L105.642 30.074H119.166ZM134.161 11.628H141.797C146.029 11.628 149.019 12.594 150.767 14.526C151.963 15.8447 152.561 17.5927 152.561 19.77C152.561 21.6407 152.04 23.2353 150.997 24.554C149.955 25.8727 148.529 26.7927 146.719 27.314C147.241 27.6207 147.869 28.188 148.605 29.016C149.249 29.752 149.755 30.396 150.123 30.948L157.989 43H155.137L149.249 33.8C147.808 31.5613 146.643 30.074 145.753 29.338C144.649 28.418 143.254 27.958 141.567 27.958H136.645V43H134.161V11.628ZM136.645 13.698V25.888H141.889C144.68 25.888 146.75 25.3053 148.099 24.14C149.326 23.0973 149.939 21.6407 149.939 19.77C149.939 17.7153 149.219 16.1973 147.777 15.216C146.336 14.204 144.005 13.698 140.785 13.698H136.645ZM163.75 43V11.628H180.908V13.698H166.234V26.164H180.54V28.234H166.234V40.93H181.276V43H163.75ZM189.521 43V11.628H191.821L215.419 39.044V11.628H217.857V43H215.833L192.005 15.446V43H189.521Z" fill="white"/>
</svg>
