<svg width="228" height="58" viewBox="0 0 228 58" fill="none" xmlns="http://www.w3.org/2000/svg">
<path d="M12.976 26.21L0.877975 11.628H3.77598L14.218 24.048L24.752 11.628H27.696L15.46 26.164V43H12.976V26.21ZM49.7303 11.214C54.361 11.214 58.271 12.7473 61.4603 15.814C64.6803 18.85 66.2903 22.6373 66.2903 27.176C66.2903 31.776 64.6957 35.64 61.5063 38.768C58.3477 41.8653 54.4223 43.414 49.7303 43.414C45.069 43.414 41.1283 41.8807 37.9083 38.814C34.719 35.7167 33.1243 31.8833 33.1243 27.314C33.1243 22.714 34.7037 18.8807 37.8623 15.814C41.021 12.7473 44.977 11.214 49.7303 11.214ZM49.6383 41.206C53.6863 41.206 57.029 39.8567 59.6663 37.158C62.3343 34.4287 63.6683 31.1013 63.6683 27.176C63.6683 23.3427 62.319 20.092 59.6203 17.424C56.9217 14.756 53.625 13.422 49.7303 13.422C45.7743 13.422 42.447 14.802 39.7483 17.562C37.0803 20.2913 35.7463 23.6033 35.7463 27.498C35.7463 31.3313 37.0803 34.582 39.7483 37.25C42.447 39.8873 45.7437 41.206 49.6383 41.206ZM90.8195 11.214C95.4501 11.214 99.3601 12.7473 102.549 15.814C105.769 18.85 107.379 22.6373 107.379 27.176C107.379 31.776 105.785 35.64 102.595 38.768C99.4368 41.8653 95.5115 43.414 90.8195 43.414C86.1581 43.414 82.2175 41.8807 78.9975 38.814C75.8081 35.7167 74.2135 31.8833 74.2135 27.314C74.2135 22.714 75.7928 18.8807 78.9515 15.814C82.1101 12.7473 86.0661 11.214 90.8195 11.214ZM90.7275 41.206C94.7755 41.206 98.1181 39.8567 100.755 37.158C103.423 34.4287 104.757 31.1013 104.757 27.176C104.757 23.3427 103.408 20.092 100.709 17.424C98.0108 14.756 94.7141 13.422 90.8195 13.422C86.8635 13.422 83.5361 14.802 80.8375 17.562C78.1695 20.2913 76.8355 23.6033 76.8355 27.498C76.8355 31.3313 78.1695 34.582 80.8375 37.25C83.5361 39.8873 86.8328 41.206 90.7275 41.206ZM116.039 43V11.582H118.523V26.026H139.499V11.582H141.983V43H139.499V28.096H118.523V43H116.039ZM166.978 11.214C171.609 11.214 175.519 12.7473 178.708 15.814C181.928 18.85 183.538 22.6373 183.538 27.176C183.538 31.776 181.944 35.64 178.754 38.768C175.596 41.8653 171.67 43.414 166.978 43.414C162.317 43.414 158.376 41.8807 155.156 38.814C151.967 35.7167 150.372 31.8833 150.372 27.314C150.372 22.714 151.952 18.8807 155.11 15.814C158.269 12.7473 162.225 11.214 166.978 11.214ZM166.886 41.206C170.934 41.206 174.277 39.8567 176.914 37.158C179.582 34.4287 180.916 31.1013 180.916 27.176C180.916 23.3427 179.567 20.092 176.868 17.424C174.17 14.756 170.873 13.422 166.978 13.422C163.022 13.422 159.695 14.802 156.996 17.562C154.328 20.2913 152.994 23.6033 152.994 27.498C152.994 31.3313 154.328 34.582 156.996 37.25C159.695 39.8873 162.992 41.206 166.886 41.206ZM208.067 11.214C212.698 11.214 216.608 12.7473 219.797 15.814C223.017 18.85 224.627 22.6373 224.627 27.176C224.627 31.776 223.033 35.64 219.843 38.768C216.685 41.8653 212.759 43.414 208.067 43.414C203.406 43.414 199.465 41.8807 196.245 38.814C193.056 35.7167 191.461 31.8833 191.461 27.314C191.461 22.714 193.041 18.8807 196.199 15.814C199.358 12.7473 203.314 11.214 208.067 11.214ZM207.975 41.206C212.023 41.206 215.366 39.8567 218.003 37.158C220.671 34.4287 222.005 31.1013 222.005 27.176C222.005 23.3427 220.656 20.092 217.957 17.424C215.259 14.756 211.962 13.422 208.067 13.422C204.111 13.422 200.784 14.802 198.085 17.562C195.417 20.2913 194.083 23.6033 194.083 27.498C194.083 31.3313 195.417 34.582 198.085 37.25C200.784 39.8873 204.081 41.206 207.975 41.206Z" fill="white"/>
</svg>
